Coordinates	
version=1	
nRows=252	
nColumns=2	
inDegrees=yes	
endheader	
time	shoulder_elv
2.510344266	10.28308066
2.512549217	10.44775128
2.514754169	10.61194636
2.51695912	10.77564613
2.519164072	10.93884792
2.521369023	11.10153209
2.523573975	11.26369665
2.525778926	11.42532201
2.527983878	11.58640686
2.530188829	11.74693128
2.532393781	11.90689513
2.534598732	12.06627802
2.536803684	12.22508091
2.539008635	12.3832828
2.541213587	12.54088602
2.543418538	12.6978687
2.545623489	12.85423452
2.547828441	13.00996083
2.549801286	13.14875689
2.551774131	13.28702914
2.554158678	13.45345687
2.556543224	13.61910142
2.558500964	13.75451146
2.560458703	13.88937963
2.562906915	14.0572728
2.565355128	14.22429976
2.567199969	14.34959068
2.56904481	14.47437818
2.571682818	14.65194065
2.573996793	14.80682999
2.576310769	14.96091129
2.578251495	15.08950095
2.580192221	15.21751185
2.582616834	15.37661127
2.585041447	15.5347882
2.586932116	15.65747825
2.588822786	15.77959879
2.591319324	15.93996539
2.593815862	16.09931939
2.595678361	16.21753008
2.597540859	16.33516969
2.600067187	16.49381048
2.602593515	16.65138075
2.604434447	16.76551542
2.60627538	16.87907506
2.608793368	17.03345386
2.611311357	17.18673793
2.613174285	17.29942849
2.615037214	17.41151341
2.61753982	17.56111808
2.620042426	17.70961255
2.62189157	17.81860846
2.623740715	17.92699239
2.626257068	18.0734869
2.628773422	18.2188312
2.630613285	18.32436251
2.632453149	18.42927365
2.634968282	18.57167298
2.637483415	18.7128971
2.639327609	18.81569088
2.641171804	18.91784788
2.643675191	19.05548865
2.646178579	19.19194096
2.648027519	19.29194783
2.649876459	19.39130182
2.65237683	19.52461008
2.654877201	19.65670992
2.656712351	19.75288564
2.658547501	19.84840631
2.661049098	19.9775488
2.663550695	20.10546009
2.66540105	20.19927011
2.667251405	20.29240269
2.669738073	20.4164836
2.672224741	20.53932795
2.674061936	20.62928354
2.67589913	20.71856069
2.678391673	20.83858788
2.680884216	20.95735359
2.682731835	21.04456612
2.684579455	21.13108234
2.687056485	21.24596737
2.689533515	21.35958894
2.691375012	21.44323049
2.69321651	21.52617086
2.695697289	21.63678462
2.698178068	21.74611438
2.70002306	21.82658279
2.701868052	21.90633844
2.704339877	22.01206288
2.706811702	22.11649698
2.708654669	22.19351336
2.710497637	22.26981012
2.712968963	22.37098005
2.715440289	22.47084552
2.717284933	22.54452792
2.719129576	22.61748151
2.721595017	22.71383841
2.724060457	22.8088834
2.725904008	22.87908803
2.727747558	22.94855732
2.730211385	23.04024166
2.732675211	23.13060303
2.734519746	23.19737724
2.736364281	23.26340842
2.738823545	23.35027993
2.741282809	23.43582147
2.743126952	23.49908604
2.744971094	23.56160143
2.747428107	23.64371877
2.74988512	23.72449752
2.751729703	23.78425356
2.753574285	23.84325407
2.75602778	23.9205505
2.758481275	23.99650193
2.760325843	24.05270933
2.762170411	24.10815565
2.764621358	24.18064207
2.767072305	24.25177683
2.768917109	24.30441973
2.770761914	24.35629622
2.77320997	24.42394347
2.775658026	24.49023358
2.777502923	24.5392863
2.779347821	24.58756783
2.781793407	24.65037145
2.784238993	24.71181272
2.786084068	24.75725777
2.787929144	24.80192718
2.790372246	24.8598721
2.792815348	24.91645026
2.794660548	24.95826841
2.796505748	24.99930691
2.79894662	25.05238663
2.801387492	25.10409559
2.803232839	25.14227117
2.805078187	25.17966349
2.807516942	25.22786946
2.809955697	25.27470127
2.811801172	25.30921947
2.813646648	25.34295117
2.816083491	25.38627818
2.818520334	25.42822811
2.820365937	25.45907619
2.82221154	25.48913495
2.824646642	25.52757823
2.827081743	25.564642
2.828927463	25.59180874
2.830773182	25.61818373
2.833206743	25.65174015
2.835640304	25.68391506
2.837486133	25.707391
2.839331963	25.73007313
2.84176418	25.75874043
2.844196397	25.78602468
2.846042327	25.80580194
2.847888257	25.82478374
2.850319339	25.84856073
2.852750421	25.87095355
2.854596443	25.88702592
2.856442465	25.90230155
2.858872624	25.92118788
2.861302783	25.93868934
2.863148889	25.95105221
2.864994994	25.96261744
2.867424447	25.97661358
2.869853901	25.98922454
2.87170008	25.9978749
2.873546259	26.0057271
2.875975227	26.01483426
2.878404195	26.0225563
2.88025044	26.02749274
2.882096685	26.03163087
2.884525389	26.03585092
2.886954092	26.03868633
2.888800394	26.03990901
2.890646696	26.04033361
2.893075358	26.03966913
2.895504019	26.03762083
2.897350373	26.03513143
2.899196727	26.03184452
2.901625563	26.02629854
2.904054398	26.01936992
2.905900795	26.01317153
2.907747191	26.00617656
2.910176423	25.99575272
2.912605655	25.98394777
2.914452088	25.97404504
2.916298521	25.96334702
2.918728361	25.94804967
2.9211582	25.93137316
2.923004668	25.91777226
2.924851137	25.90337774
2.927281788	25.88321207
2.929712438	25.86166958
2.93155894	25.84437824
2.933405442	25.82629532
2.935837102	25.80126738
2.938268762	25.77486541
2.9401153	25.75389287
2.941961838	25.73213117
2.944394692	25.70224805
2.946827546	25.67099414
2.948674127	25.64635115
2.950520707	25.62092179
2.952954929	25.58619176
2.955389152	25.55009462
2.957235786	25.52179341
2.95908242	25.49270899
2.96151817	25.45314161
2.96395392	25.41221132
2.965800625	25.38026557
2.96764733	25.34754013
2.970084752	25.3031465
2.972522174	25.25739463
2.974368973	25.22181945
2.976215772	25.18546843
2.978654996	25.13626128
2.981094219	25.08570115
2.982941143	25.046513
2.984788066	25.00655325
2.987229206	24.95254716
2.989670346	24.8971939
2.991517431	24.85441065
2.993364515	24.8108604
2.995807675	24.75207185
2.998250835	24.69194252
3.000098119	24.64558348
3.001945403	24.59846241
3.004390682	24.53490979
3.00683596	24.47002343
3.008683486	24.42010937
3.010531013	24.3694386
3.012978505	24.30114221
3.015425997	24.23151974
3.017273807	24.17807304
3.019121616	24.12387533
3.021571425	24.05085723
3.024021234	23.97652137
3.025869371	23.91956587
3.027717508	23.86186547
3.03016975	23.78414922
3.032621992	23.70512418
3.034470479	23.64468611
3.036318966	23.58350963
3.038773758	23.50112074
3.041228551	23.41743272
3.043077498	23.35353706
3.044926445	23.28890986
3.047384042	23.2018709
3.049841639	23.11354301
3.051690687	23.04623314
